<?xml version="1.0" encoding="UTF-8" standalone="no"?>
<svg
   version="1.1"
   width="282.29501"
   height="88.027"
   viewBox="0 0 282.29502 88.027"
   id="svg18"
   sodipodi:docname="Champ Logo (Black).svg"
   inkscape:export-filename="Champ Logo.png"
   inkscape:export-xdpi="1134.1951"
   inkscape:export-ydpi="1134.1951"
   inkscape:version="1.2.2 (732a01da63, 2022-12-09)"
   xmlns:inkscape="http://www.inkscape.org/namespaces/inkscape"
   xmlns:sodipodi="http://sodipodi.sourceforge.net/DTD/sodipodi-0.dtd"
   xmlns="http://www.w3.org/2000/svg"
   xmlns:svg="http://www.w3.org/2000/svg">
  <defs
     id="defs22" />
  <sodipodi:namedview
     id="namedview20"
     pagecolor="#505050"
     bordercolor="#eeeeee"
     borderopacity="1"
     inkscape:showpageshadow="0"
     inkscape:pageopacity="0"
     inkscape:pagecheckerboard="0"
     inkscape:deskcolor="#505050"
     showgrid="false"
     inkscape:zoom="1.4142136"
     inkscape:cx="160.15969"
     inkscape:cy="-79.903066"
     inkscape:window-width="1920"
     inkscape:window-height="991"
     inkscape:window-x="-9"
     inkscape:window-y="-9"
     inkscape:window-maximized="1"
     inkscape:current-layer="svg18"
     showguides="true" />
  <path
     d="m 282.295,44.01333 c 1.9e-4,24.30795 -19.705,44.01361 -44.01281,44.01385 -7.80762,-0.003 -15.47394,-2.0827 -22.2126,-6.02599 V 60.01545 c 2.62467,3.55602 7.78941,6.09627 12.78475,6.09627 10.66799,0 18.20302,-9.31356 18.20302,-22.52162 0,-13.29274 -7.53503,-22.6906 -18.20302,-22.6906 -5.67267,0 -11.34538,2.87863 -13.80071,6.85798 -0.16934,-1.94734 -0.76223,-5.92694 -0.76223,-6.09627 h -10.83706 c 0.42333,2.70935 0.76171,8.04372 0.76171,13.12375 V 71.8566 c -2.73281,-3.34675 -4.95792,-7.07767 -6.60373,-11.07271 V 32.83727 c 0,-1.54552 -0.18127,-2.97113 -0.52607,-4.26072 C 203.52063,11.39626 219.93661,0.00892 238.28219,0 262.5898,2.4e-4 282.29491,19.70559 282.295,44.01333 Z M 235.11959,43.5901 c 0,8.04337 -3.89452,13.12323 -9.90586,13.12323 -5.67266,0 -9.14414,-4.57201 -9.14414,-11.68404 v -2.62465 c 0,-7.53537 3.55615,-12.27677 9.14414,-12.27677 6.01134,0 9.90586,5.16485 9.90586,13.46223 z"
     fill="#a26991"
     stroke-linecap="round"
     stroke-linejoin="round"
     id="path4"
     style="mix-blend-mode:normal" />
  <path
     d="m 22.69068,20.81468 c 11.684,0 19.81201,7.45071 21.50534,13.97009 l -11.51467,2.87869 c -1.35467,-4.57203 -5.16467,-7.45071 -9.99067,-7.45071 -6.604,0 -10.75267,5.1647 -10.75267,13.12341 0,8.04337 4.14867,13.20808 10.75267,13.20808 4.65667,0 8.55134,-2.79402 10.07534,-7.19671 l 11.43,2.87869 C 42.58735,58.4916 34.37468,65.94231 22.69068,65.94231 9.48268,65.94231 0,56.62892 0,43.33617 0,30.04341 9.48267,20.81469 22.69068,20.81469 Z"
     fill="#ffffff"
     stroke-linecap="round"
     stroke-linejoin="round"
     id="path6"
     style="mix-blend-mode:normal;fill:#000000" />
  <path
     d="m 64.1774,25.97938 c 3.302,-3.04802 7.874,-5.08003 12.86934,-5.08003 9.48267,0 15.83267,6.51938 15.83267,16.5101 v 27.8555 h -11.938 V 39.01813 c 0,-5.6727 -2.794,-8.80539 -7.45067,-8.80539 -5.588,0 -9.31334,3.81002 -9.31334,10.41406 V 65.26495 H 52.32406 V 5.82859 H 64.1774 Z"
     fill="#ffffff"
     stroke-linecap="round"
     stroke-linejoin="round"
     id="path8"
     style="mix-blend-mode:normal;fill:#000000" />
  <path
     d="m 132.84213,65.26496 c -0.16934,-0.508 -1.016,-4.23335 -1.18534,-4.74136 -3.38667,3.38669 -8.46667,5.50336 -13.54667,5.50336 -9.82134,0 -16.17134,-5.24936 -16.17134,-13.63142 0,-7.36604 7.874,-12.70007 20.15068,-14.05475 l 8.80533,-0.93133 v -1.18535 c 0,-3.55602 -3.048,-6.01136 -7.02733,-6.01136 -3.89467,0 -7.28134,2.03201 -8.21268,5.1647 l -11.43,-1.94735 c 1.778,-7.36604 9.48267,-12.61541 19.81201,-12.61541 10.922,0 18.79601,6.51938 18.79601,16.59477 v 14.73208 c 0,7.11205 0.16933,9.56739 0.67733,13.12341 z M 130.89479,47.31551 V 44.7755 l -8.21267,0.93134 c -5.75734,0.59267 -8.89,3.04803 -8.89,6.09604 0,3.04802 2.794,4.99536 6.94267,4.99536 6.26533,0 10.16,-3.64069 10.16,-9.48272 z"
     fill="#ffffff"
     stroke-linecap="round"
     stroke-linejoin="round"
     id="path10"
     style="mix-blend-mode:normal;fill:#000000" />
  <path
     d="m 151.44553,45.78995 c -0.003,-17.51057 -0.068,-20.72448 -0.47403,-23.43189 l -0.1264,-0.84287 h 4.78479 4.78479 l 0.18519,0.70158 c 0.10186,0.38587 0.24223,1.14358 0.31195,1.6838 0.0697,0.54022 0.17905,0.98103 0.24297,0.97958 0.0639,-0.001 0.57926,-0.46998 1.1452,-1.04118 1.38936,-1.40225 3.4953,-2.44208 5.54086,-2.73586 2.89436,-0.41568 5.66991,0.47165 7.84773,2.50889 0.65716,0.61474 1.37921,1.41603 1.60454,1.78063 l 0.4097,0.66291 0.37493,-0.5396 c 0.82846,-1.19236 2.86365,-3.00725 3.94577,-3.51866 3.04619,-1.43964 7.52677,-1.30573 10.37286,0.31001 2.12931,1.20882 4.40283,4.35839 4.4058,6.10346 5.3e-4,0.37485 -0.31238,1.67927 -0.6956,2.89871 -1.44724,4.60535 -2.11544,10.26204 -1.80258,15.25988 0.26859,4.29072 0.98715,7.91138 2.34431,11.81248 0.79149,2.27511 0.82435,2.45642 0.82435,4.54732 v 2.17772 h -5.03817 -5.03817 l -0.0732,-15.66868 c -0.0684,-14.64009 -0.0961,-15.74113 -0.42139,-16.77229 -0.69527,-2.2037 -2.19755,-3.07205 -4.40048,-2.54358 -1.22246,0.29326 -1.89326,0.86814 -2.44971,2.09939 l -0.44584,0.98653 -0.0546,15.94931 -0.0546,15.94931 h -5.03197 -5.03197 l -0.065,-15.66868 c -0.0648,-15.61534 -0.0664,-15.67292 -0.48138,-16.91399 -0.51729,-1.54713 -1.30867,-2.31804 -2.57442,-2.50785 -1.61675,-0.24245 -3.08947,0.53486 -3.85448,2.0344 -0.84134,1.64917 -0.8921,2.68365 -0.89903,18.32288 l -0.006,14.73323 h -5.05139 -5.0514 z"
     fill="#ffffff"
     stroke-linecap="round"
     stroke-linejoin="round"
     id="path12"
     style="mix-blend-mode:normal;fill:#000000" />
</svg>
