<svg version="1.1" xmlns="http://www.w3.org/2000/svg" xmlns:xlink="http://www.w3.org/1999/xlink" width="279.44252" height="88.02718" viewBox="0,0,279.44252,88.02718"><g transform="translate(-100.27874,-135.98641)"><g data-paper-data="{&quot;isPaintingLayer&quot;:true}" fill-rule="nonzero" stroke="none" stroke-width="0" stroke-linecap="round" stroke-linejoin="round" stroke-miterlimit="10" stroke-dasharray="" stroke-dashoffset="0" style="mix-blend-mode: normal"><g><path d="M379.72126,179.99974c0.00019,24.30795 -19.705,44.01361 -44.01281,44.01385c-7.80762,-0.003 -15.47394,-2.0827 -22.2126,-6.02599v-21.98574c2.62467,3.55602 7.78941,6.09627 12.78475,6.09627c10.66799,0 18.20302,-9.31356 18.20302,-22.52162c0,-13.29274 -7.53503,-22.6906 -18.20302,-22.6906c-5.67267,0 -11.34538,2.87863 -13.80071,6.85798c-0.16934,-1.94734 -0.76223,-5.92694 -0.76223,-6.09627h-10.83706c0.42333,2.70935 0.76171,8.04372 0.76171,13.12375v37.07164c-2.73281,-3.34675 -4.95792,-7.07767 -6.60373,-11.07271v-27.94662c0,-1.54552 -0.18127,-2.97113 -0.52607,-4.26072c6.43438,-17.18029 22.85036,-28.56763 41.19594,-28.57655c24.30761,0.00024 44.01272,19.70559 44.01281,44.01333zM332.54585,179.57651c0,8.04337 -3.89452,13.12323 -9.90586,13.12323c-5.67266,0 -9.14414,-4.57201 -9.14414,-11.68404v-2.62465c0,-7.53537 3.55615,-12.27677 9.14414,-12.27677c6.01134,0 9.90586,5.16485 9.90586,13.46223z" fill="#ffcc33"/><path d="M248.8718,181.77636c-0.003,-17.51057 -0.068,-20.72448 -0.47403,-23.43189l-0.1264,-0.84287h4.78479h4.78479l0.18519,0.70158c0.10186,0.38587 0.24223,1.14358 0.31195,1.6838c0.0697,0.54022 0.17905,0.98103 0.24297,0.97958c0.0639,-0.001 0.57926,-0.46998 1.1452,-1.04118c1.38936,-1.40225 3.4953,-2.44208 5.54086,-2.73586c2.89436,-0.41568 5.66991,0.47165 7.84773,2.50889c0.65716,0.61474 1.37921,1.41603 1.60454,1.78063l0.4097,0.66291l0.37493,-0.5396c0.82846,-1.19236 2.86365,-3.00725 3.94577,-3.51866c3.04619,-1.43964 7.52677,-1.30573 10.37286,0.31001c2.12931,1.20882 4.40283,4.35839 4.4058,6.10346c0.00053,0.37485 -0.31238,1.67927 -0.6956,2.89871c-1.44724,4.60535 -2.11544,10.26204 -1.80258,15.25988c0.26859,4.29072 0.98715,7.91138 2.34431,11.81248c0.79149,2.27511 0.82435,2.45642 0.82435,4.54732v2.17772h-5.03817h-5.03817l-0.0732,-15.66868c-0.0684,-14.64009 -0.0961,-15.74113 -0.42139,-16.77229c-0.69527,-2.2037 -2.19755,-3.07205 -4.40048,-2.54358c-1.22246,0.29326 -1.89326,0.86814 -2.44971,2.09939l-0.44584,0.98653l-0.0546,15.94931l-0.0546,15.94931h-5.03197h-5.03197l-0.065,-15.66868c-0.0648,-15.61534 -0.0664,-15.67292 -0.48138,-16.91399c-0.51729,-1.54713 -1.30867,-2.31804 -2.57442,-2.50785c-1.61675,-0.24245 -3.08947,0.53486 -3.85448,2.0344c-0.84134,1.64917 -0.8921,2.68365 -0.89903,18.32288l-0.006,14.73323h-5.05139h-5.0514z" fill="#000000"/><path d="M110.01542,166.11457h-9.73667v-7.45067l9.73667,-1.10067l3.302,-11.59934h8.29734v11.59934h13.80067v8.89h-13.80067v20.74334c0,3.38667 1.60867,5.75734 8.636,5.75734c1.86267,0 4.318,-0.16933 7.62,-0.762v9.22867c-2.96334,0.42333 -6.096,0.67733 -8.89,0.67733c-13.54667,0 -18.96534,-6.77334 -18.96534,-14.73201z" fill="#a26991"/><path d="M149.13146,192.36125h9.82134v-21.59001c0,-1.69333 0,-3.13267 0,-4.318h-9.82134v-8.89h17.10267c1.35467,3.13267 2.54,6.77334 3.048,9.652c3.47133,-6.858 8.80534,-10.32934 20.23534,-10.32934l1.10066,9.906c-1.43933,-0.16933 -2.794,-0.16933 -4.064,-0.16933c-11.00667,0 -16.34067,4.74133 -16.34067,12.27667v13.46201h13.37734v8.89h-34.45935z" fill="#a26991"/><path d="M201.7095,157.56323h24.89201v34.79801h12.95401v8.89h-37.84602v-8.89h13.03868v-25.90801h-13.03868zM227.61752,141.13789v11.68401h-13.462v-11.68401z" fill="#a26991"/></g></g></g></svg>