<?xml version="1.0" encoding="UTF-8" standalone="no"?>
<!-- Created with Inkscape (http://www.inkscape.org/) -->

<svg
   width="867.60199"
   height="250"
   viewBox="0 0 229.55301 66.14583"
   version="1.1"
   id="svg5"
   inkscape:version="1.2.2 (732a01da63, 2022-12-09)"
   sodipodi:docname="Trimp Logo (White).svg"
   inkscape:export-filename="Trimp Logo.png"
   inkscape:export-xdpi="110.65"
   inkscape:export-ydpi="110.65"
   xmlns:inkscape="http://www.inkscape.org/namespaces/inkscape"
   xmlns:sodipodi="http://sodipodi.sourceforge.net/DTD/sodipodi-0.dtd"
   xmlns="http://www.w3.org/2000/svg"
   xmlns:svg="http://www.w3.org/2000/svg">
  <sodipodi:namedview
     id="namedview7"
     pagecolor="#505050"
     bordercolor="#eeeeee"
     borderopacity="1"
     inkscape:showpageshadow="0"
     inkscape:pageopacity="0"
     inkscape:pagecheckerboard="0"
     inkscape:deskcolor="#505050"
     inkscape:document-units="mm"
     showgrid="false"
     inkscape:zoom="1.4142136"
     inkscape:cx="591.14127"
     inkscape:cy="246.42671"
     inkscape:window-width="1920"
     inkscape:window-height="991"
     inkscape:window-x="-9"
     inkscape:window-y="-9"
     inkscape:window-maximized="1"
     inkscape:current-layer="g577" />
  <defs
     id="defs2" />
  <g
     inkscape:label="Layer 1"
     inkscape:groupmode="layer"
     id="layer1">
    <g
       id="g577"
       transform="translate(-9.9218774)">
      <rect
         style="fill:#a26991;fill-opacity:1;stroke:#000000;stroke-width:0;stroke-linecap:round;stroke-linejoin:round"
         id="rect1383"
         width="46.302078"
         height="46.302078"
         x="9.9218779"
         y="1.3229191" />
      <rect
         style="fill:#ffcc33;fill-opacity:1;stroke:#000000;stroke-width:0;stroke-linecap:round;stroke-linejoin:round"
         id="rect1383-7"
         width="229.55292"
         height="2.6458311"
         x="9.9218779"
         y="59.531254" />
      <path
         id="rect340"
         style="fill:#ffffff;stroke:#000000;stroke-width:0;stroke-linecap:round;stroke-linejoin:round"
         d="M 27.979689,0 V 15.000117 H 9.9218786 v 9.999907 H 27.979689 V 46.14602 c 0,14.999982 3.363279,19.999818 22.113379,19.999813 h 6.130893 v -9.999907 h -6.130893 c -9.811991,0 -12.113042,-4.299394 -12.112956,-9.999906 V 25.000024 h 18.243845 l -1.13e-4,-9.999907 H 37.979999 L 37.980112,0 Z"
         sodipodi:nodetypes="cccccssccsccccccc" />
      <path
         id="rect340-1"
         style="fill:#ffffff;stroke:#000000;stroke-width:0;stroke-linecap:round;stroke-linejoin:round"
         d="M 58.869795,15.000023 V 66.145738 H 68.870218 V 46.628067 c 0,-13.270415 3.307304,-21.627627 21.429183,-21.628138 v -9.999906 c -12.650482,0 -18.642166,5.091204 -21.429183,12.004435 V 15.000023 Z" />
      <path
         id="rect1412-6"
         style="fill:#ffffff;stroke:#000000;stroke-width:0;stroke-linecap:round;stroke-linejoin:round"
         d="M 105.59149 15.000118 L 105.59149 66.145833 L 115.59191 66.145833 L 115.59191 46.628162 C 115.59191 37.855659 116.91486 25.000404 130.40651 25.000024 C 142.57537 25.000024 142.57528 33.357747 142.57528 46.628162 L 142.57528 66.145833 L 152.5757 66.145833 L 152.5757 46.628162 C 152.5757 33.35776 155.22145 25.025346 167.3903 25.025346 C 179.55915 25.025346 179.55907 33.383081 179.55907 46.653483 L 179.55907 66.171155 L 189.55949 66.171155 L 189.55949 46.653483 C 189.55949 33.322558 189.55955 15.025439 167.3903 15.025439 C 156.6672 15.025439 151.75019 19.300423 149.53093 25.223267 C 146.67429 19.28742 141.13759 15.000118 130.40651 15.000118 C 122.24108 15.000118 117.87093 20.49099 115.59191 27.071216 L 115.59191 15.000118 L 105.59149 15.000118 z " />
      <path
         id="rect340-1-3-6-8"
         style="fill:#ffffff;stroke:#000000;stroke-width:0;stroke-linecap:round;stroke-linejoin:round"
         d="m 192.20532,15.000118 v 51.145715 h 10.00043 v -9.708968 h 11.64166 c 23.8063,0 25.62738,-10.567681 25.62738,-20.718115 0,-10.150434 -1.82108,-20.718115 -25.62738,-20.718115 h -11.64166 v -5.17e-4 z m 10.00043,10.000423 h 11.64166 c 12.16886,0 15.52969,3.46555 15.62696,10.718209 -0.0973,7.252659 -3.4581,10.718209 -15.62696,10.718209 h -11.64166 z" />
      <g
         id="g1613"
         transform="translate(-1.0256687)"
         style="fill:#ffffff">
        <rect
           style="fill:#ffffff;stroke:#000000;stroke-width:0;stroke-linecap:round;stroke-linejoin:round"
           id="rect1412-7"
           width="10.000422"
           height="51.145714"
           x="93.970886"
           y="15.000119" />
        <rect
           style="fill:#ffffff;stroke:#000000;stroke-width:0;stroke-linecap:round;stroke-linejoin:round"
           id="rect1609"
           width="10"
           height="10"
           x="93.9711"
           y="5e-07" />
      </g>
    </g>
  </g>
</svg>
